<svg xmlns="http://www.w3.org/2000/svg" xmlns:xlink="http://www.w3.org/1999/xlink" version="1.1" x="0px" y="0px" viewBox="0 0 226.8 283.5" enable-background="new 0 0 226.8 226.8" xml:space="preserve"><path d="M193.4,184.3l-24.3-19H87.4c-7.2,0-13.1-5.9-13.1-13.1V91.5c0-7.2,5.9-13.1,13.1-13.1h111c7.2,0,13.1,5.9,13.1,13.1v60.8  c0,7.2-5.9,13.1-13.1,13.1h-5L193.4,184.3z M87.4,85.2c-3.4,0-6.2,2.8-6.2,6.2v60.8c0,3.4,2.8,6.2,6.2,6.2h85.5l13.7,10.4l0-10.4  l11.9,0c3.4,0,6.2-2.8,6.2-6.2V91.5c0-3.4-2.8-6.2-6.2-6.2H87.4z M69.2,128.5H56.9L43.2,139l0-10.4l-11.9,0c-3.4,0-6.2-2.8-6.2-6.2  V61.5c0-3.4,2.8-6.2,6.2-6.2h111c3.4,0,6.2,2.8,6.2,6.2v12.4h6.8V61.5c0-7.2-5.9-13.1-13.1-13.1h-111c-7.2,0-13.1,5.9-13.1,13.1  v60.8c0,7.2,5.9,13.1,13.1,13.1h5l0,19l24.3-19h8.6V128.5z M134.4,140.1c-0.8,0-1.6-0.3-2.2-0.9l-11.3-11.3c-1.2-1.2-1.2-3.2,0-4.5  c1.2-1.2,3.2-1.2,4.5,0l9.1,9.1l25-24.8c1.2-1.2,3.2-1.2,4.5,0c1.2,1.2,1.2,3.2,0,4.5l-27.2,27C136,139.8,135.2,140.1,134.4,140.1z"/><text x="0" y="241.8" fill="#000000" font-size="5px" font-weight="bold" font-family="'Helvetica Neue', Helvetica, Arial-Unicode, Arial, Sans-serif">Created by dilayorganci</text><text x="0" y="246.8" fill="#000000" font-size="5px" font-weight="bold" font-family="'Helvetica Neue', Helvetica, Arial-Unicode, Arial, Sans-serif">from the Noun Project</text></svg>